<?xml version="1.0" encoding="UTF-8" standalone="no"?>
<svg
   width="21"
   height="20"
   viewBox="0 0 21 20"
   fill="none"
   version="1.1"
   id="svg1"
   sodipodi:docname="icon3.svg"
   inkscape:version="1.4.2 (2aeb623e1d, 2025-05-12)"
   xmlns:inkscape="http://www.inkscape.org/namespaces/inkscape"
   xmlns:sodipodi="http://sodipodi.sourceforge.net/DTD/sodipodi-0.dtd"
   xmlns="http://www.w3.org/2000/svg"
   xmlns:svg="http://www.w3.org/2000/svg">
  <defs
     id="defs1" />
  <sodipodi:namedview
     id="namedview1"
     pagecolor="#ffffff"
     bordercolor="#000000"
     borderopacity="0.25"
     inkscape:showpageshadow="2"
     inkscape:pageopacity="0.0"
     inkscape:pagecheckerboard="0"
     inkscape:deskcolor="#d1d1d1"
     inkscape:zoom="44"
     inkscape:cx="10.488636"
     inkscape:cy="9.9886364"
     inkscape:window-width="1720"
     inkscape:window-height="1371"
     inkscape:window-x="1720"
     inkscape:window-y="32"
     inkscape:window-maximized="0"
     inkscape:current-layer="svg1" />
  <path
     d="M1.25 13.701C0.532561 14.1152 0.286748 15.0326 0.700962 15.75C1.11518 16.4674 2.03256 16.7133 2.75 16.299L1.25 13.701ZM20.7694 5.38823C20.9838 4.58803 20.5089 3.76552 19.7087 3.55111L6.66874 0.0570543C5.86854 -0.157358 5.04603 0.317515 4.83162 1.11771C4.61721 1.91791 5.09208 2.74042 5.89228 2.95483L17.4834 6.06066L14.3776 17.6518C14.1631 18.452 14.638 19.2745 15.4382 19.4889C16.2384 19.7033 17.0609 19.2284 17.2753 18.4282L20.7694 5.38823ZM2.75 16.299L20.0705 6.29904L18.5705 3.70096L1.25 13.701L2.75 16.299Z"
     fill="#B9FF66"
     id="path1" />
  <path
     style="fill:#8b5cf6;stroke-width:0.0227273;fill-opacity:1"
     d="m 15.446858,19.476538 c -0.705697,-0.18485 -1.206686,-0.926462 -1.095189,-1.621205 0.01377,-0.08582 0.603242,-2.313765 1.309932,-4.950996 0.706691,-2.637231 1.28159,-4.7979193 1.277554,-4.8015295 -0.004,-0.00361 -1.582337,0.9030557 -3.507337,2.0148135 -1.925,1.111758 -4.3028407,2.484791 -5.2840907,3.051185 -0.98125,0.566395 -2.6125,1.508126 -3.625,2.092736 -1.0125,0.584611 -1.8848673,1.081815 -1.9385939,1.1049 -0.2743837,0.117892 -0.6550365,0.149251 -0.9365158,0.07715 -0.91186121,-0.233569 -1.39127733,-1.233034 -0.9919352,-2.067941 0.0981462,-0.205195 0.25335476,-0.408297 0.39996,-0.523379 0.08002,-0.06281 13.6641286,-7.9293137 14.3529816,-8.311751 0.04483,-0.02489 0.04483,-0.025041 0,-0.043698 C 15.383881,5.486528 13.224499,4.9053895 10.609997,4.2054059 7.9954955,3.5054225 5.8002541,2.9117175 5.731683,2.8860618 5.4607757,2.7847025 5.1600348,2.527758 5.0005045,2.2613636 4.8652243,2.0354635 4.8016782,1.801432 4.7999443,1.5227273 4.7981586,1.2356894 4.8394305,1.064961 4.9730082,0.80681818 5.1423105,0.47963614 5.4794952,0.19901033 5.8409091,0.08449811 5.970445,0.04345527 6.0527768,0.03417622 6.2840909,0.03455013 l 0.2840909,4.5923e-4 5.9090912,1.58635574 c 3.25,0.8724956 6.23125,1.672894 6.625,1.7786629 0.39375,0.1057688 0.777272,0.22119 0.852272,0.2564915 0.618654,0.2911921 0.97079,1.0075346 0.816832,1.6616623 -0.143852,0.6111873 -3.54781,13.2385022 -3.598646,13.3495282 -0.182487,0.398554 -0.574465,0.719102 -1.002276,0.819632 -0.20323,0.04776 -0.517977,0.04306 -0.723597,-0.0108 z"
     id="path2" />
  <path
     style="fill:#8b5cf6;fill-opacity:1;stroke-width:0.0227273"
     d="m 15.488636,19.475307 c -0.14774,-0.02848 -0.446411,-0.182921 -0.587725,-0.303918 -0.341466,-0.292375 -0.548638,-0.713269 -0.548638,-1.114622 0,-0.19487 -0.0178,-0.125589 1.366306,-5.318131 0.599753,-2.25 1.121276,-4.2066183 1.158941,-4.348041 0.03767,-0.1414227 0.06529,-0.2666691 0.06139,-0.278325 -0.0096,-0.028611 -0.268379,0.1198748 -9.4502736,5.421974 -4.2274007,2.441119 -4.9027486,2.825634 -5.0322017,2.865133 -0.063539,0.01939 -0.2075711,0.0462 -0.3200711,0.05958 C 1.4322707,16.542727 0.73590923,16.04155 0.56709432,15.329545 0.5250009,15.15201 0.52586657,14.844558 0.56897478,14.661683 0.62959967,14.404498 0.85705236,14.029481 1.0385322,13.887491 1.072225,13.86113 1.3994977,13.664704 1.765805,13.450989 3.6736659,12.337884 13.372843,6.7218211 14.812646,5.8965466 15.159601,5.6976768 15.440059,5.5245411 15.435885,5.5118007 15.431712,5.4990602 15.347271,5.4668866 15.24824,5.4403036 15.149208,5.4137207 14.30625,5.1868143 13.375,4.936067 12.44375,4.68532 10.648864,4.2025461 9.3863636,3.8632364 6.6476243,3.1271725 5.8865986,2.9200891 5.7435382,2.8719834 5.5944682,2.821857 5.360285,2.6618945 5.2221598,2.5158475 5.0620877,2.3465948 4.9551316,2.1720659 4.8827445,1.9619962 4.8296543,1.8079263 4.8213641,1.7475515 4.8208668,1.5113636 4.8202459,1.2165381 4.8399852,1.119685 4.9467439,0.89372986 5.0897918,0.59096805 5.3388139,0.33689734 5.6418886,0.18449137 5.8530975,0.07828162 6.0089591,0.04545455 6.3020295,0.04545455 c 0.2966807,0 -0.4180036,-0.18266143 5.4366065,1.38950635 1.76875,0.4749712 4.1875,1.12419 5.375,1.4427082 2.905429,0.7793114 2.869971,0.7681389 3.136329,0.9882443 0.46051,0.3805434 0.635118,0.9596202 0.475901,1.578295 -0.299004,1.1618475 -2.591631,9.6823416 -3.337636,12.4042466 -0.122622,0.447405 -0.242635,0.838796 -0.275995,0.900089 -0.182123,0.334621 -0.547668,0.6217 -0.91097,0.715429 -0.151621,0.03912 -0.536707,0.04524 -0.712629,0.01133 z"
     id="path3" />
</svg>
